# xmcd
#
# Track frame offsets:
#	150
#	18918
#	41921
#	59547
#	76686
#	93126
#	112472
#	126582
#	146042
#	164142
#	182596
#	200425
#
# Disc length: 3042 seconds
#
# Revision: 0
# Processed by: cddbd v1.5.1PL0 Copyright (c) Steve Scherf et al.
# Submitted via: dBpowerAMP V4.0
#
DISCID=b00be00c
DTITLE=Jim Houston - Up From the Ground
DYEAR=1900
DGENRE=Blues
TTITLE0=Wonder Never Ceases
TTITLE1=The Other Side of the Highway
TTITLE2=Cold Enough to Snow
TTITLE3=You Can Dance
TTITLE4=Up From the Ground
TTITLE5=Bourbon for Breakfast
TTITLE6=Bitchy Waitress Blues
TTITLE7=Katy's Tattoo
TTITLE8=Baby's a Bad Bit of Bizness
TTITLE9=Ace in the Hole
TTITLE10=No Big Production
TTITLE11=Fall Like Pain
EXTD=
EXTT0=
EXTT1=
EXTT2=
EXTT3=
EXTT4=
EXTT5=
EXTT6=
EXTT7=
EXTT8=
EXTT9=
EXTT10=
EXTT11=
PLAYORDER=
